<?xml version="1.0" encoding="iso-8859-1"?>
<!-- Generator: Adobe Illustrator 19.0.0, SVG Export Plug-In . SVG Version: 6.00 Build 0)  -->
<svg version="1.1" id="Layer_1" xmlns="http://www.w3.org/2000/svg" xmlns:xlink="http://www.w3.org/1999/xlink" x="0px" y="0px"
	 viewBox="0 0 496 496" style="enable-background:new 0 0 496 496;" xml:space="preserve">
<path style="fill:#0DBFBA;" d="M248,496C120,496,16,392,16,264c0-96,60-183.2,149.6-216.8c12-4.8,25.6,1.6,29.6,13.6
	c4.8,12-1.6,25.6-13.6,29.6c-72,27.2-120,96.8-120,173.6c0,102.4,83.2,185.6,185.6,185.6S433.6,366.4,433.6,264
	c0-77.6-48.8-147.2-121.6-174.4C300,84.8,293.6,72,298.4,60S316,41.6,328,46.4C419.2,80,480,167.2,480,264C480,392,376,496,248,496z
	"/>
<path style="fill:#1BCEB8;" d="M165.6,47.2C83.2,78.4,24.8,156,16.8,243.2C28,360.8,127.2,453.6,248,453.6s220-92.8,231.2-210.4
	c-8-88.8-66.4-165.6-151.2-196.8c-5.6-2.4-12-1.6-16.8,0.8c0,0,0.8,0,0.8,0.8c72.8,26.4,121.6,96.8,121.6,174.4
	c0,7.2-0.8,14.4-1.6,21.6c0.8,7.2,1.6,13.6,1.6,20.8c0,102.4-83.2,185.6-185.6,185.6S62.4,366.4,62.4,264c0-7.2,0.8-13.6,1.6-20.8
	c-0.8-7.2-1.6-14.4-1.6-21.6c0-76.8,48-146.4,120-173.6c0,0,0.8,0,0.8-0.8C178.4,45.6,172,44.8,165.6,47.2z"/>
<path style="fill:#0DBFBA;" d="M248,168.8c-12.8,0-24-10.4-24-23.2V23.2C224,10.4,235.2,0,248,0c12.8,0,24,10.4,24,23.2v122.4
	C272,158.4,260.8,168.8,248,168.8z"/>
<path style="fill:#1BCEB8;" d="M248,0c-12.8,0-24,10.4-24,23.2v99.2c0,12.8,11.2,23.2,24,23.2c12.8,0,24-10.4,24-23.2V23.2
	C272,10.4,260.8,0,248,0z"/>
<g>
</g>
<g>
</g>
<g>
</g>
<g>
</g>
<g>
</g>
<g>
</g>
<g>
</g>
<g>
</g>
<g>
</g>
<g>
</g>
<g>
</g>
<g>
</g>
<g>
</g>
<g>
</g>
<g>
</g>
</svg>
